<svg xmlns="http://www.w3.org/2000/svg" viewBox="0 0 24 24" aria-hidden="true">
  <path fill="currentColor" d="M4 4.25A2.25 2.25 0 0 0 1.75 6.5v11A2.25 2.25 0 0 0 4 19.75h16a2.25 2.25 0 0 0 2.25-2.25v-11A2.25 2.25 0 0 0 20 4.25H4Zm0 1.5h16a.75.75 0 0 1 .75.75v2.25H3.25V6.5A.75.75 0 0 1 4 5.75Zm-.75 4.5h17.5v7.25a.75.75 0 0 1-.75.75H4a.75.75 0 0 1-.75-.75v-7.25Zm2.75 2a.75.75 0 0 0 0 1.5h4.5a.75.75 0 0 0 0-1.5H6Zm0 3a.75.75 0 0 0 0 1.5h8.5a.75.75 0 0 0 0-1.5H6Zm11.5-3a1.25 1.25 0 1 0 0 2.5 1.25 1.25 0 0 0 0-2.5Z"/>
</svg>
